<svg width="512" height="508" viewBox="0 0 512 508" fill="none" xmlns="http://www.w3.org/2000/svg">
<rect width="512" height="508" fill="#1E1E1E"/>
<path d="M320.008 45.625H192.008V84.031H320.008V45.625Z" fill="#A2DB00"/>
<path d="M275.196 0.828003H236.805V128.828H275.196V0.828003Z" fill="#A2DB00"/>
<path d="M449.008 443.172H63.008V507.172H449.008V443.172Z" fill="#A2DB00"/>
<path d="M107.992 211.641C116.039 274.5 148.742 351.5 175.992 408.469H224.414V186.438C224.414 148.157 187.226 132.844 154.648 139.188C134.477 143.094 102.07 165.391 107.992 211.641Z" fill="#A2DB00"/>
<path d="M66.258 188.969C66.18 185.797 64.383 182.906 61.555 181.469C58.742 180.016 55.352 180.203 52.727 182C52.727 182 44.93 185.078 36.118 193.188C-9.788 235.469 -21.945 300.516 59.852 408.469H133.805C111.477 359.438 73.367 281.61 66.664 204.844C65.711 193.875 66.258 188.969 66.258 188.969Z" fill="#A2DB00"/>
<path d="M404.008 215.688C395.961 278.547 363.258 355.563 336.008 412.501H287.586V190.484C287.586 152.218 324.774 136.906 357.352 143.234C377.523 147.156 409.93 169.438 404.008 215.688Z" fill="#A2DB00"/>
<path d="M445.742 193.016C445.82 189.844 447.633 186.969 450.445 185.5C453.258 184.062 456.648 184.25 459.273 186.031C459.273 186.031 467.07 189.125 475.882 197.25C521.788 239.531 533.945 304.563 452.148 412.5H378.195C400.523 363.469 438.633 285.656 445.336 208.906C446.289 197.922 445.742 193.016 445.742 193.016Z" fill="#A2DB00"/>
<path d="M267.336 395.844C267.336 402.094 262.258 407.172 256.008 407.172C249.742 407.172 244.664 402.094 244.664 395.844C244.664 389.578 249.742 384.5 256.008 384.5C262.258 384.5 267.336 389.578 267.336 395.844Z" fill="#A2DB00"/>
<path d="M267.336 350.094C267.336 356.36 262.258 361.438 256.008 361.438C249.742 361.438 244.664 356.36 244.664 350.094C244.664 343.844 249.742 338.766 256.008 338.766C262.258 338.766 267.336 343.844 267.336 350.094Z" fill="#A2DB00"/>
<path d="M267.336 304.375C267.336 310.625 262.258 315.703 256.008 315.703C249.742 315.703 244.664 310.625 244.664 304.375C244.664 298.109 249.742 293.031 256.008 293.031C262.258 293.031 267.336 298.109 267.336 304.375Z" fill="#A2DB00"/>
<path d="M267.336 258.625C267.336 264.875 262.258 269.969 256.008 269.969C249.742 269.969 244.664 264.875 244.664 258.625C244.664 252.375 249.742 247.281 256.008 247.281C262.258 247.281 267.336 252.375 267.336 258.625Z" fill="#A2DB00"/>
<path d="M267.336 212.891C267.336 219.157 262.258 224.219 256.008 224.219C249.742 224.219 244.664 219.156 244.664 212.891C244.664 206.626 249.742 201.563 256.008 201.563C262.258 201.563 267.336 206.625 267.336 212.891Z" fill="#A2DB00"/>
<path d="M267.336 167.156C267.336 173.406 262.258 178.5 256.008 178.5C249.742 178.5 244.664 173.406 244.664 167.156C244.664 160.906 249.742 155.812 256.008 155.812C262.258 155.813 267.336 160.906 267.336 167.156Z" fill="#A2DB00"/>
</svg>
